<svg xmlns="http://www.w3.org/2000/svg" xmlns:xlink="http://www.w3.org/1999/xlink" width="250" zoomAndPan="magnify" viewBox="0 0 187.5 74.999997" height="100" preserveAspectRatio="xMidYMid meet" version="1.0"><defs><g/><clipPath id="d0b77399ac"><path d="M 0 0.101562 L 187 0.101562 L 187 74.898438 L 0 74.898438 Z M 0 0.101562 " clip-rule="nonzero"/></clipPath></defs><g clip-path="url(#d0b77399ac)"><path fill="#ffffff" d="M 0 0.101562 L 187.5 0.101562 L 187.5 75.101562 L 0 75.101562 Z M 0 0.101562 " fill-opacity="1" fill-rule="nonzero"/><path fill="#ffffff" d="M 0 0.101562 L 187.5 0.101562 L 187.5 75.101562 L 0 75.101562 Z M 0 0.101562 " fill-opacity="1" fill-rule="nonzero"/></g><g fill="#05347e" fill-opacity="1"><g transform="translate(1.37203, 36.189833)"><g><path d="M 5.234375 0 C 5.460938 0 5.589844 -0.121094 5.589844 -0.351562 L 5.589844 -11.367188 L 8.515625 -11.367188 C 8.75 -11.367188 8.871094 -11.496094 8.871094 -11.722656 L 8.871094 -12.875 C 8.871094 -13.109375 8.75 -13.226562 8.515625 -13.226562 L 0.585938 -13.226562 C 0.363281 -13.226562 0.234375 -13.109375 0.234375 -12.875 L 0.234375 -11.722656 C 0.234375 -11.496094 0.363281 -11.367188 0.585938 -11.367188 L 3.523438 -11.367188 L 3.523438 -0.351562 C 3.523438 -0.121094 3.644531 0 3.875 0 Z M 5.234375 0 "/></g></g></g><g fill="#05347e" fill-opacity="1"><g transform="translate(10.482464, 36.189833)"><g><path d="M 3.015625 0 C 3.238281 0 3.359375 -0.121094 3.359375 -0.351562 L 3.359375 -4.261719 L 9.457031 -4.261719 L 9.457031 -0.351562 C 9.457031 -0.121094 9.578125 0 9.808594 0 L 11.160156 0 C 11.386719 0 11.515625 -0.121094 11.515625 -0.351562 L 11.515625 -12.875 C 11.515625 -13.109375 11.386719 -13.226562 11.160156 -13.226562 L 9.808594 -13.226562 C 9.578125 -13.226562 9.457031 -13.109375 9.457031 -12.875 L 9.457031 -6.125 L 3.359375 -6.125 L 3.359375 -12.875 C 3.359375 -13.109375 3.238281 -13.226562 3.015625 -13.226562 L 1.664062 -13.226562 C 1.429688 -13.226562 1.308594 -13.109375 1.308594 -12.875 L 1.308594 -0.351562 C 1.308594 -0.121094 1.429688 0 1.664062 0 Z M 3.015625 0 "/></g></g></g><g fill="#05347e" fill-opacity="1"><g transform="translate(23.304244, 36.189833)"><g><path d="M 8.421875 0 C 8.65625 0 8.777344 -0.121094 8.777344 -0.351562 L 8.777344 -1.507812 C 8.777344 -1.730469 8.65625 -1.859375 8.421875 -1.859375 L 3.359375 -1.859375 L 3.359375 -4.289062 L 7.734375 -4.289062 C 7.964844 -4.289062 8.085938 -4.417969 8.085938 -4.640625 L 8.085938 -5.734375 C 8.085938 -5.96875 7.964844 -6.089844 7.734375 -6.089844 L 3.359375 -6.089844 L 3.359375 -11.367188 L 8.421875 -11.367188 C 8.65625 -11.367188 8.777344 -11.496094 8.777344 -11.722656 L 8.777344 -12.875 C 8.777344 -13.109375 8.65625 -13.226562 8.421875 -13.226562 L 1.664062 -13.226562 C 1.429688 -13.226562 1.308594 -13.109375 1.308594 -12.875 L 1.308594 -0.351562 C 1.308594 -0.121094 1.429688 0 1.664062 0 Z M 8.421875 0 "/></g></g></g><g fill="#05347e" fill-opacity="1"><g transform="translate(32.836623, 36.189833)"><g/></g></g><g fill="#05347e" fill-opacity="1"><g transform="translate(38.011837, 36.189833)"><g><path d="M 7.292969 0 C 7.519531 0 7.640625 -0.121094 7.640625 -0.351562 L 7.640625 -1.507812 C 7.640625 -1.730469 7.519531 -1.859375 7.292969 -1.859375 L 3.359375 -1.859375 L 3.359375 -12.875 C 3.359375 -13.109375 3.238281 -13.226562 3.015625 -13.226562 L 1.664062 -13.226562 C 1.429688 -13.226562 1.308594 -13.109375 1.308594 -12.875 L 1.308594 -0.351562 C 1.308594 -0.121094 1.429688 0 1.664062 0 Z M 7.292969 0 "/></g></g></g><g fill="#05347e" fill-opacity="1"><g transform="translate(45.908127, 36.189833)"><g><path d="M 7.691406 0.292969 C 11.625 0.292969 14.640625 -2.515625 14.640625 -6.613281 C 14.640625 -10.695312 11.625 -13.519531 7.691406 -13.519531 C 3.761719 -13.519531 0.75 -10.695312 0.75 -6.613281 C 0.75 -2.515625 3.761719 0.292969 7.691406 0.292969 Z M 7.691406 -1.644531 C 4.960938 -1.644531 2.808594 -3.660156 2.808594 -6.613281 C 2.808594 -9.585938 4.953125 -11.582031 7.691406 -11.582031 C 10.421875 -11.582031 12.582031 -9.585938 12.582031 -6.613281 C 12.582031 -3.644531 10.421875 -1.644531 7.691406 -1.644531 Z M 7.691406 -1.644531 "/></g></g></g><g fill="#05347e" fill-opacity="1"><g transform="translate(61.313205, 36.189833)"><g><path d="M 7.683594 0.292969 C 9.722656 0.292969 11.488281 -0.480469 12.71875 -1.75 C 12.867188 -1.910156 12.832031 -2.074219 12.652344 -2.230469 L 11.566406 -3.015625 C 11.394531 -3.160156 11.238281 -3.144531 11.082031 -2.988281 C 10.214844 -2.160156 9.027344 -1.644531 7.691406 -1.644531 C 4.960938 -1.644531 2.808594 -3.660156 2.808594 -6.621094 C 2.808594 -9.585938 4.960938 -11.582031 7.664062 -11.582031 C 9.027344 -11.582031 10.207031 -11.066406 11.082031 -10.238281 C 11.238281 -10.085938 11.402344 -10.066406 11.566406 -10.214844 L 12.652344 -11.015625 C 12.824219 -11.160156 12.847656 -11.332031 12.6875 -11.496094 C 11.445312 -12.761719 9.699219 -13.519531 7.664062 -13.519531 C 3.796875 -13.519531 0.75 -10.738281 0.75 -6.613281 C 0.75 -2.488281 3.789062 0.292969 7.683594 0.292969 Z M 7.683594 0.292969 "/></g></g></g><g fill="#05347e" fill-opacity="1"><g transform="translate(74.660249, 36.189833)"><g><path d="M 6.589844 -13.226562 C 6.40625 -13.640625 6.054688 -13.640625 5.875 -13.226562 L 0.285156 -0.414062 C 0.179688 -0.164062 0.285156 0 0.550781 0 L 2.050781 0 C 2.238281 0 2.378906 -0.0859375 2.453125 -0.265625 L 3.316406 -2.378906 L 9.15625 -2.378906 L 10.015625 -0.265625 C 10.085938 -0.0859375 10.222656 0 10.421875 0 L 11.910156 0 C 12.175781 0 12.28125 -0.164062 12.175781 -0.414062 Z M 6.234375 -9.566406 L 8.464844 -4.082031 L 4.003906 -4.082031 Z M 6.234375 -9.566406 "/></g></g></g><g fill="#05347e" fill-opacity="1"><g transform="translate(87.128972, 36.189833)"><g><path d="M 7.292969 0 C 7.519531 0 7.640625 -0.121094 7.640625 -0.351562 L 7.640625 -1.507812 C 7.640625 -1.730469 7.519531 -1.859375 7.292969 -1.859375 L 3.359375 -1.859375 L 3.359375 -12.875 C 3.359375 -13.109375 3.238281 -13.226562 3.015625 -13.226562 L 1.664062 -13.226562 C 1.429688 -13.226562 1.308594 -13.109375 1.308594 -12.875 L 1.308594 -0.351562 C 1.308594 -0.121094 1.429688 0 1.664062 0 Z M 7.292969 0 "/></g></g></g><g fill="#05347e" fill-opacity="1"><g transform="translate(95.025261, 36.189833)"><g/></g></g><g fill="#05347e" fill-opacity="1"><g transform="translate(100.200476, 36.189833)"><g><path d="M 7.683594 0.292969 C 9.722656 0.292969 11.488281 -0.480469 12.71875 -1.75 C 12.867188 -1.910156 12.832031 -2.074219 12.652344 -2.230469 L 11.566406 -3.015625 C 11.394531 -3.160156 11.238281 -3.144531 11.082031 -2.988281 C 10.214844 -2.160156 9.027344 -1.644531 7.691406 -1.644531 C 4.960938 -1.644531 2.808594 -3.660156 2.808594 -6.621094 C 2.808594 -9.585938 4.960938 -11.582031 7.664062 -11.582031 C 9.027344 -11.582031 10.207031 -11.066406 11.082031 -10.238281 C 11.238281 -10.085938 11.402344 -10.066406 11.566406 -10.214844 L 12.652344 -11.015625 C 12.824219 -11.160156 12.847656 -11.332031 12.6875 -11.496094 C 11.445312 -12.761719 9.699219 -13.519531 7.664062 -13.519531 C 3.796875 -13.519531 0.75 -10.738281 0.75 -6.613281 C 0.75 -2.488281 3.789062 0.292969 7.683594 0.292969 Z M 7.683594 0.292969 "/></g></g></g><g fill="#05347e" fill-opacity="1"><g transform="translate(113.54752, 36.189833)"><g><path d="M 7.691406 0.292969 C 11.625 0.292969 14.640625 -2.515625 14.640625 -6.613281 C 14.640625 -10.695312 11.625 -13.519531 7.691406 -13.519531 C 3.761719 -13.519531 0.75 -10.695312 0.75 -6.613281 C 0.75 -2.515625 3.761719 0.292969 7.691406 0.292969 Z M 7.691406 -1.644531 C 4.960938 -1.644531 2.808594 -3.660156 2.808594 -6.613281 C 2.808594 -9.585938 4.953125 -11.582031 7.691406 -11.582031 C 10.421875 -11.582031 12.582031 -9.585938 12.582031 -6.613281 C 12.582031 -3.644531 10.421875 -1.644531 7.691406 -1.644531 Z M 7.691406 -1.644531 "/></g></g></g><g fill="#05347e" fill-opacity="1"><g transform="translate(128.952598, 36.189833)"><g><path d="M 2.988281 0 C 3.210938 0 3.339844 -0.121094 3.339844 -0.351562 L 3.339844 -8.828125 L 10.902344 0 C 11.351562 0.492188 11.796875 0.328125 11.796875 -0.300781 L 11.796875 -12.875 C 11.796875 -13.109375 11.679688 -13.226562 11.445312 -13.226562 L 10.136719 -13.226562 C 9.902344 -13.226562 9.785156 -13.109375 9.785156 -12.875 L 9.785156 -4.539062 L 2.1875 -13.253906 C 1.757812 -13.738281 1.328125 -13.5625 1.328125 -12.925781 L 1.328125 -0.351562 C 1.328125 -0.121094 1.445312 0 1.679688 0 Z M 2.988281 0 "/></g></g></g><g fill="#05347e" fill-opacity="1"><g transform="translate(142.084374, 36.189833)"><g><path d="M 5.234375 0 C 5.460938 0 5.589844 -0.121094 5.589844 -0.351562 L 5.589844 -11.367188 L 8.515625 -11.367188 C 8.75 -11.367188 8.871094 -11.496094 8.871094 -11.722656 L 8.871094 -12.875 C 8.871094 -13.109375 8.75 -13.226562 8.515625 -13.226562 L 0.585938 -13.226562 C 0.363281 -13.226562 0.234375 -13.109375 0.234375 -12.875 L 0.234375 -11.722656 C 0.234375 -11.496094 0.363281 -11.367188 0.585938 -11.367188 L 3.523438 -11.367188 L 3.523438 -0.351562 C 3.523438 -0.121094 3.644531 0 3.875 0 Z M 5.234375 0 "/></g></g></g><g fill="#05347e" fill-opacity="1"><g transform="translate(151.194808, 36.189833)"><g><path d="M 6.589844 -13.226562 C 6.40625 -13.640625 6.054688 -13.640625 5.875 -13.226562 L 0.285156 -0.414062 C 0.179688 -0.164062 0.285156 0 0.550781 0 L 2.050781 0 C 2.238281 0 2.378906 -0.0859375 2.453125 -0.265625 L 3.316406 -2.378906 L 9.15625 -2.378906 L 10.015625 -0.265625 C 10.085938 -0.0859375 10.222656 0 10.421875 0 L 11.910156 0 C 12.175781 0 12.28125 -0.164062 12.175781 -0.414062 Z M 6.234375 -9.566406 L 8.464844 -4.082031 L 4.003906 -4.082031 Z M 6.234375 -9.566406 "/></g></g></g><g fill="#05347e" fill-opacity="1"><g transform="translate(163.66353, 36.189833)"><g><path d="M 7.683594 0.292969 C 9.722656 0.292969 11.488281 -0.480469 12.71875 -1.75 C 12.867188 -1.910156 12.832031 -2.074219 12.652344 -2.230469 L 11.566406 -3.015625 C 11.394531 -3.160156 11.238281 -3.144531 11.082031 -2.988281 C 10.214844 -2.160156 9.027344 -1.644531 7.691406 -1.644531 C 4.960938 -1.644531 2.808594 -3.660156 2.808594 -6.621094 C 2.808594 -9.585938 4.960938 -11.582031 7.664062 -11.582031 C 9.027344 -11.582031 10.207031 -11.066406 11.082031 -10.238281 C 11.238281 -10.085938 11.402344 -10.066406 11.566406 -10.214844 L 12.652344 -11.015625 C 12.824219 -11.160156 12.847656 -11.332031 12.6875 -11.496094 C 11.445312 -12.761719 9.699219 -13.519531 7.664062 -13.519531 C 3.796875 -13.519531 0.75 -10.738281 0.75 -6.613281 C 0.75 -2.488281 3.789062 0.292969 7.683594 0.292969 Z M 7.683594 0.292969 "/></g></g></g><g fill="#05347e" fill-opacity="1"><g transform="translate(177.010575, 36.189833)"><g><path d="M 5.234375 0 C 5.460938 0 5.589844 -0.121094 5.589844 -0.351562 L 5.589844 -11.367188 L 8.515625 -11.367188 C 8.75 -11.367188 8.871094 -11.496094 8.871094 -11.722656 L 8.871094 -12.875 C 8.871094 -13.109375 8.75 -13.226562 8.515625 -13.226562 L 0.585938 -13.226562 C 0.363281 -13.226562 0.234375 -13.109375 0.234375 -12.875 L 0.234375 -11.722656 C 0.234375 -11.496094 0.363281 -11.367188 0.585938 -11.367188 L 3.523438 -11.367188 L 3.523438 -0.351562 C 3.523438 -0.121094 3.644531 0 3.875 0 Z M 5.234375 0 "/></g></g></g><g fill="#05347e" fill-opacity="1"><g transform="translate(56.919809, 52.545437)"><g><path d="M 3.828125 0.0625 C 3.191406 0.0625 2.617188 -0.078125 2.109375 -0.359375 C 1.597656 -0.640625 1.195312 -1.03125 0.90625 -1.53125 C 0.625 -2.03125 0.484375 -2.585938 0.484375 -3.203125 C 0.484375 -3.828125 0.625 -4.382812 0.90625 -4.875 C 1.195312 -5.375 1.597656 -5.765625 2.109375 -6.046875 C 2.628906 -6.328125 3.207031 -6.46875 3.84375 -6.46875 C 4.320312 -6.46875 4.757812 -6.390625 5.15625 -6.234375 C 5.5625 -6.078125 5.90625 -5.847656 6.1875 -5.546875 L 5.765625 -5.109375 C 5.265625 -5.617188 4.628906 -5.875 3.859375 -5.875 C 3.347656 -5.875 2.882812 -5.753906 2.46875 -5.515625 C 2.0625 -5.285156 1.738281 -4.96875 1.5 -4.5625 C 1.257812 -4.164062 1.140625 -3.710938 1.140625 -3.203125 C 1.140625 -2.703125 1.257812 -2.25 1.5 -1.84375 C 1.738281 -1.445312 2.0625 -1.128906 2.46875 -0.890625 C 2.882812 -0.660156 3.347656 -0.546875 3.859375 -0.546875 C 4.628906 -0.546875 5.265625 -0.804688 5.765625 -1.328125 L 6.1875 -0.890625 C 5.90625 -0.585938 5.5625 -0.351562 5.15625 -0.1875 C 4.75 -0.0195312 4.304688 0.0625 3.828125 0.0625 Z M 3.828125 0.0625 "/></g></g></g><g fill="#05347e" fill-opacity="1"><g transform="translate(63.510531, 52.545437)"><g><path d="M 3.859375 0.0625 C 3.210938 0.0625 2.628906 -0.078125 2.109375 -0.359375 C 1.597656 -0.648438 1.195312 -1.039062 0.90625 -1.53125 C 0.625 -2.03125 0.484375 -2.585938 0.484375 -3.203125 C 0.484375 -3.828125 0.625 -4.382812 0.90625 -4.875 C 1.195312 -5.375 1.597656 -5.765625 2.109375 -6.046875 C 2.628906 -6.328125 3.210938 -6.46875 3.859375 -6.46875 C 4.492188 -6.46875 5.066406 -6.328125 5.578125 -6.046875 C 6.085938 -5.765625 6.488281 -5.375 6.78125 -4.875 C 7.070312 -4.382812 7.21875 -3.828125 7.21875 -3.203125 C 7.21875 -2.585938 7.070312 -2.03125 6.78125 -1.53125 C 6.488281 -1.03125 6.085938 -0.640625 5.578125 -0.359375 C 5.066406 -0.078125 4.492188 0.0625 3.859375 0.0625 Z M 3.859375 -0.546875 C 4.359375 -0.546875 4.8125 -0.660156 5.21875 -0.890625 C 5.632812 -1.117188 5.957031 -1.4375 6.1875 -1.84375 C 6.425781 -2.25 6.546875 -2.703125 6.546875 -3.203125 C 6.546875 -3.710938 6.425781 -4.171875 6.1875 -4.578125 C 5.957031 -4.984375 5.632812 -5.300781 5.21875 -5.53125 C 4.8125 -5.757812 4.359375 -5.875 3.859375 -5.875 C 3.347656 -5.875 2.882812 -5.757812 2.46875 -5.53125 C 2.0625 -5.300781 1.738281 -4.984375 1.5 -4.578125 C 1.257812 -4.171875 1.140625 -3.710938 1.140625 -3.203125 C 1.140625 -2.703125 1.257812 -2.25 1.5 -1.84375 C 1.738281 -1.4375 2.0625 -1.117188 2.46875 -0.890625 C 2.882812 -0.660156 3.347656 -0.546875 3.859375 -0.546875 Z M 3.859375 -0.546875 "/></g></g></g><g fill="#05347e" fill-opacity="1"><g transform="translate(71.20123, 52.545437)"><g><path d="M 2.8125 0.0625 C 2.332031 0.0625 1.875 -0.015625 1.4375 -0.171875 C 1 -0.328125 0.664062 -0.53125 0.4375 -0.78125 L 0.703125 -1.296875 C 0.929688 -1.066406 1.238281 -0.878906 1.625 -0.734375 C 2.007812 -0.585938 2.40625 -0.515625 2.8125 -0.515625 C 3.382812 -0.515625 3.816406 -0.617188 4.109375 -0.828125 C 4.398438 -1.046875 4.546875 -1.320312 4.546875 -1.65625 C 4.546875 -1.914062 4.46875 -2.117188 4.3125 -2.265625 C 4.15625 -2.421875 3.960938 -2.539062 3.734375 -2.625 C 3.503906 -2.707031 3.1875 -2.796875 2.78125 -2.890625 C 2.300781 -3.015625 1.914062 -3.132812 1.625 -3.25 C 1.34375 -3.363281 1.097656 -3.535156 0.890625 -3.765625 C 0.691406 -4.003906 0.59375 -4.320312 0.59375 -4.71875 C 0.59375 -5.039062 0.675781 -5.332031 0.84375 -5.59375 C 1.007812 -5.863281 1.269531 -6.078125 1.625 -6.234375 C 1.988281 -6.390625 2.429688 -6.46875 2.953125 -6.46875 C 3.316406 -6.46875 3.675781 -6.414062 4.03125 -6.3125 C 4.382812 -6.21875 4.6875 -6.082031 4.9375 -5.90625 L 4.71875 -5.359375 C 4.445312 -5.535156 4.15625 -5.664062 3.84375 -5.75 C 3.539062 -5.84375 3.242188 -5.890625 2.953125 -5.890625 C 2.390625 -5.890625 1.960938 -5.78125 1.671875 -5.5625 C 1.390625 -5.351562 1.25 -5.078125 1.25 -4.734375 C 1.25 -4.472656 1.328125 -4.265625 1.484375 -4.109375 C 1.640625 -3.953125 1.835938 -3.832031 2.078125 -3.75 C 2.316406 -3.664062 2.632812 -3.578125 3.03125 -3.484375 C 3.5 -3.367188 3.878906 -3.253906 4.171875 -3.140625 C 4.460938 -3.023438 4.707031 -2.851562 4.90625 -2.625 C 5.101562 -2.394531 5.203125 -2.085938 5.203125 -1.703125 C 5.203125 -1.367188 5.113281 -1.066406 4.9375 -0.796875 C 4.769531 -0.535156 4.503906 -0.328125 4.140625 -0.171875 C 3.785156 -0.015625 3.34375 0.0625 2.8125 0.0625 Z M 2.8125 0.0625 "/></g></g></g><g fill="#05347e" fill-opacity="1"><g transform="translate(76.838632, 52.545437)"><g><path d="M 2.296875 -5.828125 L 0.03125 -5.828125 L 0.03125 -6.421875 L 5.234375 -6.421875 L 5.234375 -5.828125 L 2.96875 -5.828125 L 2.96875 0 L 2.296875 0 Z M 2.296875 -5.828125 "/></g></g></g><g fill="#05347e" fill-opacity="1"><g transform="translate(82.100211, 52.545437)"><g><path d="M 5.078125 -1.71875 L 1.5 -1.71875 L 0.71875 0 L 0.015625 0 L 2.953125 -6.421875 L 3.625 -6.421875 L 6.5625 0 L 5.84375 0 Z M 4.828125 -2.265625 L 3.28125 -5.71875 L 1.75 -2.265625 Z M 4.828125 -2.265625 "/></g></g></g><g fill="#05347e" fill-opacity="1"><g transform="translate(88.672601, 52.545437)"><g/></g></g><g fill="#05347e" fill-opacity="1"><g transform="translate(91.074232, 52.545437)"><g><path d="M 5.09375 -3.3125 C 5.507812 -3.21875 5.832031 -3.035156 6.0625 -2.765625 C 6.289062 -2.492188 6.40625 -2.144531 6.40625 -1.71875 C 6.40625 -1.164062 6.203125 -0.738281 5.796875 -0.4375 C 5.390625 -0.144531 4.789062 0 4 0 L 1.046875 0 L 1.046875 -6.421875 L 3.8125 -6.421875 C 4.53125 -6.421875 5.085938 -6.273438 5.484375 -5.984375 C 5.878906 -5.703125 6.078125 -5.296875 6.078125 -4.765625 C 6.078125 -4.410156 5.988281 -4.109375 5.8125 -3.859375 C 5.632812 -3.617188 5.394531 -3.4375 5.09375 -3.3125 Z M 1.71875 -5.859375 L 1.71875 -3.53125 L 3.765625 -3.53125 C 4.285156 -3.53125 4.6875 -3.628906 4.96875 -3.828125 C 5.25 -4.023438 5.390625 -4.316406 5.390625 -4.703125 C 5.390625 -5.078125 5.25 -5.363281 4.96875 -5.5625 C 4.6875 -5.757812 4.285156 -5.859375 3.765625 -5.859375 Z M 3.984375 -0.5625 C 4.566406 -0.5625 5.003906 -0.65625 5.296875 -0.84375 C 5.585938 -1.039062 5.734375 -1.347656 5.734375 -1.765625 C 5.734375 -2.566406 5.148438 -2.96875 3.984375 -2.96875 L 1.71875 -2.96875 L 1.71875 -0.5625 Z M 3.984375 -0.5625 "/></g></g></g><g fill="#05347e" fill-opacity="1"><g transform="translate(97.985784, 52.545437)"><g><path d="M 1.046875 -6.421875 L 1.71875 -6.421875 L 1.71875 -0.59375 L 5.3125 -0.59375 L 5.3125 0 L 1.046875 0 Z M 1.046875 -6.421875 "/></g></g></g><g fill="#05347e" fill-opacity="1"><g transform="translate(103.384861, 52.545437)"><g><path d="M 5.078125 -1.71875 L 1.5 -1.71875 L 0.71875 0 L 0.015625 0 L 2.953125 -6.421875 L 3.625 -6.421875 L 6.5625 0 L 5.84375 0 Z M 4.828125 -2.265625 L 3.28125 -5.71875 L 1.75 -2.265625 Z M 4.828125 -2.265625 "/></g></g></g><g fill="#05347e" fill-opacity="1"><g transform="translate(109.957252, 52.545437)"><g><path d="M 6.40625 -6.421875 L 6.40625 0 L 5.859375 0 L 1.71875 -5.203125 L 1.71875 0 L 1.046875 0 L 1.046875 -6.421875 L 1.609375 -6.421875 L 5.734375 -1.203125 L 5.734375 -6.421875 Z M 6.40625 -6.421875 "/></g></g></g><g fill="#05347e" fill-opacity="1"><g transform="translate(117.409627, 52.545437)"><g><path d="M 3.828125 0.0625 C 3.191406 0.0625 2.617188 -0.078125 2.109375 -0.359375 C 1.597656 -0.640625 1.195312 -1.03125 0.90625 -1.53125 C 0.625 -2.03125 0.484375 -2.585938 0.484375 -3.203125 C 0.484375 -3.828125 0.625 -4.382812 0.90625 -4.875 C 1.195312 -5.375 1.597656 -5.765625 2.109375 -6.046875 C 2.628906 -6.328125 3.207031 -6.46875 3.84375 -6.46875 C 4.320312 -6.46875 4.757812 -6.390625 5.15625 -6.234375 C 5.5625 -6.078125 5.90625 -5.847656 6.1875 -5.546875 L 5.765625 -5.109375 C 5.265625 -5.617188 4.628906 -5.875 3.859375 -5.875 C 3.347656 -5.875 2.882812 -5.753906 2.46875 -5.515625 C 2.0625 -5.285156 1.738281 -4.96875 1.5 -4.5625 C 1.257812 -4.164062 1.140625 -3.710938 1.140625 -3.203125 C 1.140625 -2.703125 1.257812 -2.25 1.5 -1.84375 C 1.738281 -1.445312 2.0625 -1.128906 2.46875 -0.890625 C 2.882812 -0.660156 3.347656 -0.546875 3.859375 -0.546875 C 4.628906 -0.546875 5.265625 -0.804688 5.765625 -1.328125 L 6.1875 -0.890625 C 5.90625 -0.585938 5.5625 -0.351562 5.15625 -0.1875 C 4.75 -0.0195312 4.304688 0.0625 3.828125 0.0625 Z M 3.828125 0.0625 "/></g></g></g><g fill="#05347e" fill-opacity="1"><g transform="translate(124.000349, 52.545437)"><g><path d="M 5.078125 -1.71875 L 1.5 -1.71875 L 0.71875 0 L 0.015625 0 L 2.953125 -6.421875 L 3.625 -6.421875 L 6.5625 0 L 5.84375 0 Z M 4.828125 -2.265625 L 3.28125 -5.71875 L 1.75 -2.265625 Z M 4.828125 -2.265625 "/></g></g></g></svg>