<svg xmlns="http://www.w3.org/2000/svg" xmlns:xlink="http://www.w3.org/1999/xlink" width="250" zoomAndPan="magnify" viewBox="0 0 187.5 74.999997" height="100" preserveAspectRatio="xMidYMid meet" version="1.0"><defs><g/><clipPath id="64c3ddadec"><path d="M 0 0.101562 L 187 0.101562 L 187 74.898438 L 0 74.898438 Z M 0 0.101562 " clip-rule="nonzero"/></clipPath></defs><g clip-path="url(#64c3ddadec)"><path fill="#ffffff" d="M 0 0.101562 L 187.5 0.101562 L 187.5 75.101562 L 0 75.101562 Z M 0 0.101562 " fill-opacity="1" fill-rule="nonzero"/><path fill="#ffffff" d="M 0 0.101562 L 187.5 0.101562 L 187.5 75.101562 L 0 75.101562 Z M 0 0.101562 " fill-opacity="1" fill-rule="nonzero"/></g><g fill="#fad02c" fill-opacity="1"><g transform="translate(2.482762, 41.509053)"><g><path d="M 0.234375 -21.15625 L 10.515625 -21.15625 L 10.515625 -18.125 L 7.046875 -18.125 L 7.046875 0 L 3.71875 0 L 3.71875 -18.125 L 0.234375 -18.125 Z M 0.234375 -21.15625 "/></g></g></g><g fill="#fad02c" fill-opacity="1"><g transform="translate(13.237838, 41.509053)"><g><path d="M 4.53125 0 L 1.203125 0 L 1.203125 -21.15625 L 4.53125 -21.15625 L 4.53125 -12.09375 L 8.3125 -12.09375 L 8.3125 -21.15625 L 11.6875 -21.15625 L 11.6875 0 L 8.3125 0 L 8.3125 -9.0625 L 4.53125 -9.0625 Z M 4.53125 0 "/></g></g></g><g fill="#fad02c" fill-opacity="1"><g transform="translate(26.137891, 41.509053)"><g><path d="M 4.53125 -12.234375 L 9.09375 -12.234375 L 9.09375 -9.21875 L 4.53125 -9.21875 L 4.53125 -3.015625 L 10.28125 -3.015625 L 10.28125 0 L 1.203125 0 L 1.203125 -21.15625 L 10.28125 -21.15625 L 10.28125 -18.125 L 4.53125 -18.125 Z M 4.53125 -12.234375 "/></g></g></g><g fill="#fad02c" fill-opacity="1"><g transform="translate(37.255499, 41.509053)"><g/></g></g><g fill="#fad02c" fill-opacity="1"><g transform="translate(41.938188, 41.509053)"><g><path d="M 1.203125 -21.15625 L 4.53125 -21.15625 L 4.53125 -3.015625 L 10 -3.015625 L 10 0 L 1.203125 0 Z M 1.203125 -21.15625 "/></g></g></g><g fill="#fad02c" fill-opacity="1"><g transform="translate(52.17968, 41.509053)"><g><path d="M 4.265625 -4.859375 C 4.265625 -4.097656 4.421875 -3.5625 4.734375 -3.25 C 5.046875 -2.9375 5.460938 -2.78125 5.984375 -2.78125 C 6.503906 -2.78125 6.921875 -2.9375 7.234375 -3.25 C 7.546875 -3.5625 7.703125 -4.097656 7.703125 -4.859375 L 7.703125 -16.28125 C 7.703125 -17.050781 7.546875 -17.59375 7.234375 -17.90625 C 6.921875 -18.21875 6.503906 -18.375 5.984375 -18.375 C 5.460938 -18.375 5.046875 -18.21875 4.734375 -17.90625 C 4.421875 -17.59375 4.265625 -17.050781 4.265625 -16.28125 Z M 0.9375 -16.078125 C 0.9375 -17.785156 1.367188 -19.097656 2.234375 -20.015625 C 3.097656 -20.929688 4.347656 -21.390625 5.984375 -21.390625 C 7.617188 -21.390625 8.867188 -20.929688 9.734375 -20.015625 C 10.597656 -19.097656 11.03125 -17.785156 11.03125 -16.078125 L 11.03125 -5.078125 C 11.03125 -3.367188 10.597656 -2.054688 9.734375 -1.140625 C 8.867188 -0.222656 7.617188 0.234375 5.984375 0.234375 C 4.347656 0.234375 3.097656 -0.222656 2.234375 -1.140625 C 1.367188 -2.054688 0.9375 -3.367188 0.9375 -5.078125 Z M 0.9375 -16.078125 "/></g></g></g><g fill="#fad02c" fill-opacity="1"><g transform="translate(64.143196, 41.509053)"><g><path d="M 10.84375 -7.890625 L 10.84375 -5.078125 C 10.84375 -3.367188 10.425781 -2.054688 9.59375 -1.140625 C 8.757812 -0.222656 7.523438 0.234375 5.890625 0.234375 C 4.253906 0.234375 3.019531 -0.222656 2.1875 -1.140625 C 1.351562 -2.054688 0.9375 -3.367188 0.9375 -5.078125 L 0.9375 -16.078125 C 0.9375 -17.785156 1.351562 -19.097656 2.1875 -20.015625 C 3.019531 -20.929688 4.253906 -21.390625 5.890625 -21.390625 C 7.523438 -21.390625 8.757812 -20.929688 9.59375 -20.015625 C 10.425781 -19.097656 10.84375 -17.785156 10.84375 -16.078125 L 10.84375 -14.015625 L 7.703125 -14.015625 L 7.703125 -16.28125 C 7.703125 -17.050781 7.546875 -17.59375 7.234375 -17.90625 C 6.921875 -18.21875 6.503906 -18.375 5.984375 -18.375 C 5.460938 -18.375 5.046875 -18.21875 4.734375 -17.90625 C 4.421875 -17.59375 4.265625 -17.050781 4.265625 -16.28125 L 4.265625 -4.859375 C 4.265625 -4.097656 4.421875 -3.566406 4.734375 -3.265625 C 5.046875 -2.960938 5.460938 -2.8125 5.984375 -2.8125 C 6.503906 -2.8125 6.921875 -2.960938 7.234375 -3.265625 C 7.546875 -3.566406 7.703125 -4.097656 7.703125 -4.859375 L 7.703125 -7.890625 Z M 10.84375 -7.890625 "/></g></g></g><g fill="#fad02c" fill-opacity="1"><g transform="translate(75.804601, 41.509053)"><g><path d="M 11.96875 0 L 8.609375 0 L 8.03125 -3.84375 L 3.953125 -3.84375 L 3.390625 0 L 0.328125 0 L 3.71875 -21.15625 L 8.578125 -21.15625 Z M 4.375 -6.703125 L 7.578125 -6.703125 L 5.984375 -17.40625 Z M 4.375 -6.703125 "/></g></g></g><g fill="#fad02c" fill-opacity="1"><g transform="translate(88.100435, 41.509053)"><g><path d="M 1.203125 -21.15625 L 4.53125 -21.15625 L 4.53125 -3.015625 L 10 -3.015625 L 10 0 L 1.203125 0 Z M 1.203125 -21.15625 "/></g></g></g><g fill="#fad02c" fill-opacity="1"><g transform="translate(98.341927, 41.509053)"><g/></g></g><g fill="#fad02c" fill-opacity="1"><g transform="translate(103.024621, 41.509053)"><g><path d="M 10.84375 -7.890625 L 10.84375 -5.078125 C 10.84375 -3.367188 10.425781 -2.054688 9.59375 -1.140625 C 8.757812 -0.222656 7.523438 0.234375 5.890625 0.234375 C 4.253906 0.234375 3.019531 -0.222656 2.1875 -1.140625 C 1.351562 -2.054688 0.9375 -3.367188 0.9375 -5.078125 L 0.9375 -16.078125 C 0.9375 -17.785156 1.351562 -19.097656 2.1875 -20.015625 C 3.019531 -20.929688 4.253906 -21.390625 5.890625 -21.390625 C 7.523438 -21.390625 8.757812 -20.929688 9.59375 -20.015625 C 10.425781 -19.097656 10.84375 -17.785156 10.84375 -16.078125 L 10.84375 -14.015625 L 7.703125 -14.015625 L 7.703125 -16.28125 C 7.703125 -17.050781 7.546875 -17.59375 7.234375 -17.90625 C 6.921875 -18.21875 6.503906 -18.375 5.984375 -18.375 C 5.460938 -18.375 5.046875 -18.21875 4.734375 -17.90625 C 4.421875 -17.59375 4.265625 -17.050781 4.265625 -16.28125 L 4.265625 -4.859375 C 4.265625 -4.097656 4.421875 -3.566406 4.734375 -3.265625 C 5.046875 -2.960938 5.460938 -2.8125 5.984375 -2.8125 C 6.503906 -2.8125 6.921875 -2.960938 7.234375 -3.265625 C 7.546875 -3.566406 7.703125 -4.097656 7.703125 -4.859375 L 7.703125 -7.890625 Z M 10.84375 -7.890625 "/></g></g></g><g fill="#fad02c" fill-opacity="1"><g transform="translate(114.686021, 41.509053)"><g><path d="M 4.265625 -4.859375 C 4.265625 -4.097656 4.421875 -3.5625 4.734375 -3.25 C 5.046875 -2.9375 5.460938 -2.78125 5.984375 -2.78125 C 6.503906 -2.78125 6.921875 -2.9375 7.234375 -3.25 C 7.546875 -3.5625 7.703125 -4.097656 7.703125 -4.859375 L 7.703125 -16.28125 C 7.703125 -17.050781 7.546875 -17.59375 7.234375 -17.90625 C 6.921875 -18.21875 6.503906 -18.375 5.984375 -18.375 C 5.460938 -18.375 5.046875 -18.21875 4.734375 -17.90625 C 4.421875 -17.59375 4.265625 -17.050781 4.265625 -16.28125 Z M 0.9375 -16.078125 C 0.9375 -17.785156 1.367188 -19.097656 2.234375 -20.015625 C 3.097656 -20.929688 4.347656 -21.390625 5.984375 -21.390625 C 7.617188 -21.390625 8.867188 -20.929688 9.734375 -20.015625 C 10.597656 -19.097656 11.03125 -17.785156 11.03125 -16.078125 L 11.03125 -5.078125 C 11.03125 -3.367188 10.597656 -2.054688 9.734375 -1.140625 C 8.867188 -0.222656 7.617188 0.234375 5.984375 0.234375 C 4.347656 0.234375 3.097656 -0.222656 2.234375 -1.140625 C 1.367188 -2.054688 0.9375 -3.367188 0.9375 -5.078125 Z M 0.9375 -16.078125 "/></g></g></g><g fill="#fad02c" fill-opacity="1"><g transform="translate(126.649537, 41.509053)"><g><path d="M 4.171875 -15.328125 L 4.171875 0 L 1.171875 0 L 1.171875 -21.15625 L 5.34375 -21.15625 L 8.765625 -8.484375 L 8.765625 -21.15625 L 11.71875 -21.15625 L 11.71875 0 L 8.3125 0 Z M 4.171875 -15.328125 "/></g></g></g><g fill="#fad02c" fill-opacity="1"><g transform="translate(139.54959, 41.509053)"><g><path d="M 0.234375 -21.15625 L 10.515625 -21.15625 L 10.515625 -18.125 L 7.046875 -18.125 L 7.046875 0 L 3.71875 0 L 3.71875 -18.125 L 0.234375 -18.125 Z M 0.234375 -21.15625 "/></g></g></g><g fill="#fad02c" fill-opacity="1"><g transform="translate(150.304666, 41.509053)"><g><path d="M 11.96875 0 L 8.609375 0 L 8.03125 -3.84375 L 3.953125 -3.84375 L 3.390625 0 L 0.328125 0 L 3.71875 -21.15625 L 8.578125 -21.15625 Z M 4.375 -6.703125 L 7.578125 -6.703125 L 5.984375 -17.40625 Z M 4.375 -6.703125 "/></g></g></g><g fill="#fad02c" fill-opacity="1"><g transform="translate(162.6005, 41.509053)"><g><path d="M 10.84375 -7.890625 L 10.84375 -5.078125 C 10.84375 -3.367188 10.425781 -2.054688 9.59375 -1.140625 C 8.757812 -0.222656 7.523438 0.234375 5.890625 0.234375 C 4.253906 0.234375 3.019531 -0.222656 2.1875 -1.140625 C 1.351562 -2.054688 0.9375 -3.367188 0.9375 -5.078125 L 0.9375 -16.078125 C 0.9375 -17.785156 1.351562 -19.097656 2.1875 -20.015625 C 3.019531 -20.929688 4.253906 -21.390625 5.890625 -21.390625 C 7.523438 -21.390625 8.757812 -20.929688 9.59375 -20.015625 C 10.425781 -19.097656 10.84375 -17.785156 10.84375 -16.078125 L 10.84375 -14.015625 L 7.703125 -14.015625 L 7.703125 -16.28125 C 7.703125 -17.050781 7.546875 -17.59375 7.234375 -17.90625 C 6.921875 -18.21875 6.503906 -18.375 5.984375 -18.375 C 5.460938 -18.375 5.046875 -18.21875 4.734375 -17.90625 C 4.421875 -17.59375 4.265625 -17.050781 4.265625 -16.28125 L 4.265625 -4.859375 C 4.265625 -4.097656 4.421875 -3.566406 4.734375 -3.265625 C 5.046875 -2.960938 5.460938 -2.8125 5.984375 -2.8125 C 6.503906 -2.8125 6.921875 -2.960938 7.234375 -3.265625 C 7.546875 -3.566406 7.703125 -4.097656 7.703125 -4.859375 L 7.703125 -7.890625 Z M 10.84375 -7.890625 "/></g></g></g><g fill="#fad02c" fill-opacity="1"><g transform="translate(174.261911, 41.509053)"><g><path d="M 0.234375 -21.15625 L 10.515625 -21.15625 L 10.515625 -18.125 L 7.046875 -18.125 L 7.046875 0 L 3.71875 0 L 3.71875 -18.125 L 0.234375 -18.125 Z M 0.234375 -21.15625 "/></g></g></g><g fill="#fad02c" fill-opacity="1"><g transform="translate(55.121062, 57.920577)"><g><path d="M 4.015625 0.0625 C 3.347656 0.0625 2.75 -0.0820312 2.21875 -0.375 C 1.6875 -0.675781 1.265625 -1.085938 0.953125 -1.609375 C 0.648438 -2.128906 0.5 -2.71875 0.5 -3.375 C 0.5 -4.019531 0.648438 -4.601562 0.953125 -5.125 C 1.265625 -5.644531 1.6875 -6.050781 2.21875 -6.34375 C 2.757812 -6.644531 3.363281 -6.796875 4.03125 -6.796875 C 4.53125 -6.796875 4.988281 -6.710938 5.40625 -6.546875 C 5.832031 -6.378906 6.195312 -6.132812 6.5 -5.8125 L 6.046875 -5.359375 C 5.515625 -5.890625 4.847656 -6.15625 4.046875 -6.15625 C 3.515625 -6.15625 3.03125 -6.03125 2.59375 -5.78125 C 2.15625 -5.539062 1.8125 -5.207031 1.5625 -4.78125 C 1.320312 -4.363281 1.203125 -3.894531 1.203125 -3.375 C 1.203125 -2.84375 1.320312 -2.363281 1.5625 -1.9375 C 1.8125 -1.519531 2.15625 -1.1875 2.59375 -0.9375 C 3.03125 -0.695312 3.515625 -0.578125 4.046875 -0.578125 C 4.859375 -0.578125 5.523438 -0.847656 6.046875 -1.390625 L 6.5 -0.9375 C 6.195312 -0.613281 5.832031 -0.363281 5.40625 -0.1875 C 4.988281 -0.0195312 4.523438 0.0625 4.015625 0.0625 Z M 4.015625 0.0625 "/></g></g></g><g fill="#fad02c" fill-opacity="1"><g transform="translate(62.034024, 57.920577)"><g><path d="M 4.046875 0.0625 C 3.378906 0.0625 2.773438 -0.0859375 2.234375 -0.390625 C 1.691406 -0.691406 1.265625 -1.097656 0.953125 -1.609375 C 0.648438 -2.128906 0.5 -2.71875 0.5 -3.375 C 0.5 -4.019531 0.648438 -4.601562 0.953125 -5.125 C 1.265625 -5.644531 1.691406 -6.050781 2.234375 -6.34375 C 2.773438 -6.644531 3.378906 -6.796875 4.046875 -6.796875 C 4.710938 -6.796875 5.3125 -6.644531 5.84375 -6.34375 C 6.382812 -6.050781 6.804688 -5.644531 7.109375 -5.125 C 7.421875 -4.601562 7.578125 -4.019531 7.578125 -3.375 C 7.578125 -2.71875 7.421875 -2.128906 7.109375 -1.609375 C 6.804688 -1.085938 6.382812 -0.675781 5.84375 -0.375 C 5.3125 -0.0820312 4.710938 0.0625 4.046875 0.0625 Z M 4.046875 -0.578125 C 4.578125 -0.578125 5.054688 -0.695312 5.484375 -0.9375 C 5.910156 -1.175781 6.242188 -1.507812 6.484375 -1.9375 C 6.734375 -2.363281 6.859375 -2.84375 6.859375 -3.375 C 6.859375 -3.894531 6.734375 -4.367188 6.484375 -4.796875 C 6.242188 -5.222656 5.910156 -5.554688 5.484375 -5.796875 C 5.054688 -6.035156 4.578125 -6.15625 4.046875 -6.15625 C 3.515625 -6.15625 3.03125 -6.035156 2.59375 -5.796875 C 2.15625 -5.554688 1.8125 -5.222656 1.5625 -4.796875 C 1.320312 -4.367188 1.203125 -3.894531 1.203125 -3.375 C 1.203125 -2.84375 1.320312 -2.363281 1.5625 -1.9375 C 1.8125 -1.507812 2.15625 -1.175781 2.59375 -0.9375 C 3.03125 -0.695312 3.515625 -0.578125 4.046875 -0.578125 Z M 4.046875 -0.578125 "/></g></g></g><g fill="#fad02c" fill-opacity="1"><g transform="translate(70.100751, 57.920577)"><g><path d="M 2.953125 0.0625 C 2.453125 0.0625 1.972656 -0.015625 1.515625 -0.171875 C 1.054688 -0.335938 0.703125 -0.550781 0.453125 -0.8125 L 0.734375 -1.359375 C 0.972656 -1.117188 1.296875 -0.921875 1.703125 -0.765625 C 2.109375 -0.617188 2.523438 -0.546875 2.953125 -0.546875 C 3.554688 -0.546875 4.007812 -0.65625 4.3125 -0.875 C 4.613281 -1.101562 4.765625 -1.390625 4.765625 -1.734375 C 4.765625 -2.003906 4.679688 -2.21875 4.515625 -2.375 C 4.359375 -2.539062 4.160156 -2.664062 3.921875 -2.75 C 3.679688 -2.84375 3.347656 -2.941406 2.921875 -3.046875 C 2.421875 -3.171875 2.019531 -3.289062 1.71875 -3.40625 C 1.414062 -3.53125 1.15625 -3.710938 0.9375 -3.953125 C 0.71875 -4.203125 0.609375 -4.535156 0.609375 -4.953125 C 0.609375 -5.285156 0.695312 -5.59375 0.875 -5.875 C 1.0625 -6.15625 1.335938 -6.378906 1.703125 -6.546875 C 2.078125 -6.710938 2.539062 -6.796875 3.09375 -6.796875 C 3.476562 -6.796875 3.851562 -6.742188 4.21875 -6.640625 C 4.59375 -6.535156 4.914062 -6.390625 5.1875 -6.203125 L 4.953125 -5.625 C 4.671875 -5.8125 4.367188 -5.953125 4.046875 -6.046875 C 3.722656 -6.140625 3.40625 -6.1875 3.09375 -6.1875 C 2.507812 -6.1875 2.066406 -6.070312 1.765625 -5.84375 C 1.460938 -5.613281 1.3125 -5.320312 1.3125 -4.96875 C 1.3125 -4.695312 1.394531 -4.476562 1.5625 -4.3125 C 1.726562 -4.15625 1.929688 -4.03125 2.171875 -3.9375 C 2.421875 -3.851562 2.753906 -3.757812 3.171875 -3.65625 C 3.671875 -3.53125 4.070312 -3.410156 4.375 -3.296875 C 4.675781 -3.179688 4.929688 -3 5.140625 -2.75 C 5.359375 -2.507812 5.46875 -2.1875 5.46875 -1.78125 C 5.46875 -1.4375 5.375 -1.125 5.1875 -0.84375 C 5.007812 -0.570312 4.726562 -0.351562 4.34375 -0.1875 C 3.96875 -0.0195312 3.503906 0.0625 2.953125 0.0625 Z M 2.953125 0.0625 "/></g></g></g><g fill="#fad02c" fill-opacity="1"><g transform="translate(76.013787, 57.920577)"><g><path d="M 2.40625 -6.125 L 0.03125 -6.125 L 0.03125 -6.734375 L 5.484375 -6.734375 L 5.484375 -6.125 L 3.125 -6.125 L 3.125 0 L 2.40625 0 Z M 2.40625 -6.125 "/></g></g></g><g fill="#fad02c" fill-opacity="1"><g transform="translate(81.532621, 57.920577)"><g><path d="M 5.328125 -1.796875 L 1.5625 -1.796875 L 0.765625 0 L 0.015625 0 L 3.09375 -6.734375 L 3.796875 -6.734375 L 6.875 0 L 6.125 0 Z M 5.0625 -2.375 L 3.453125 -6 L 1.828125 -2.375 Z M 5.0625 -2.375 "/></g></g></g><g fill="#fad02c" fill-opacity="1"><g transform="translate(88.426356, 57.920577)"><g/></g></g><g fill="#fad02c" fill-opacity="1"><g transform="translate(90.945405, 57.920577)"><g><path d="M 5.34375 -3.46875 C 5.78125 -3.375 6.117188 -3.179688 6.359375 -2.890625 C 6.609375 -2.609375 6.734375 -2.242188 6.734375 -1.796875 C 6.734375 -1.222656 6.519531 -0.78125 6.09375 -0.46875 C 5.664062 -0.15625 5.035156 0 4.203125 0 L 1.09375 0 L 1.09375 -6.734375 L 4 -6.734375 C 4.75 -6.734375 5.332031 -6.582031 5.75 -6.28125 C 6.164062 -5.976562 6.375 -5.550781 6.375 -5 C 6.375 -4.632812 6.28125 -4.320312 6.09375 -4.0625 C 5.914062 -3.800781 5.664062 -3.601562 5.34375 -3.46875 Z M 1.8125 -6.15625 L 1.8125 -3.703125 L 3.953125 -3.703125 C 4.503906 -3.703125 4.925781 -3.804688 5.21875 -4.015625 C 5.507812 -4.222656 5.65625 -4.523438 5.65625 -4.921875 C 5.65625 -5.328125 5.507812 -5.632812 5.21875 -5.84375 C 4.925781 -6.050781 4.503906 -6.15625 3.953125 -6.15625 Z M 4.1875 -0.59375 C 4.789062 -0.59375 5.242188 -0.691406 5.546875 -0.890625 C 5.859375 -1.097656 6.015625 -1.421875 6.015625 -1.859375 C 6.015625 -2.703125 5.40625 -3.125 4.1875 -3.125 L 1.8125 -3.125 L 1.8125 -0.59375 Z M 4.1875 -0.59375 "/></g></g></g><g fill="#fad02c" fill-opacity="1"><g transform="translate(98.194882, 57.920577)"><g><path d="M 1.09375 -6.734375 L 1.8125 -6.734375 L 1.8125 -0.609375 L 5.578125 -0.609375 L 5.578125 0 L 1.09375 0 Z M 1.09375 -6.734375 "/></g></g></g><g fill="#fad02c" fill-opacity="1"><g transform="translate(103.857936, 57.920577)"><g><path d="M 5.328125 -1.796875 L 1.5625 -1.796875 L 0.765625 0 L 0.015625 0 L 3.09375 -6.734375 L 3.796875 -6.734375 L 6.875 0 L 6.125 0 Z M 5.0625 -2.375 L 3.453125 -6 L 1.828125 -2.375 Z M 5.0625 -2.375 "/></g></g></g><g fill="#fad02c" fill-opacity="1"><g transform="translate(110.751672, 57.920577)"><g><path d="M 6.734375 -6.734375 L 6.734375 0 L 6.140625 0 L 1.8125 -5.46875 L 1.8125 0 L 1.09375 0 L 1.09375 -6.734375 L 1.6875 -6.734375 L 6.03125 -1.265625 L 6.03125 -6.734375 Z M 6.734375 -6.734375 "/></g></g></g><g fill="#fad02c" fill-opacity="1"><g transform="translate(118.568417, 57.920577)"><g><path d="M 4.015625 0.0625 C 3.347656 0.0625 2.75 -0.0820312 2.21875 -0.375 C 1.6875 -0.675781 1.265625 -1.085938 0.953125 -1.609375 C 0.648438 -2.128906 0.5 -2.71875 0.5 -3.375 C 0.5 -4.019531 0.648438 -4.601562 0.953125 -5.125 C 1.265625 -5.644531 1.6875 -6.050781 2.21875 -6.34375 C 2.757812 -6.644531 3.363281 -6.796875 4.03125 -6.796875 C 4.53125 -6.796875 4.988281 -6.710938 5.40625 -6.546875 C 5.832031 -6.378906 6.195312 -6.132812 6.5 -5.8125 L 6.046875 -5.359375 C 5.515625 -5.890625 4.847656 -6.15625 4.046875 -6.15625 C 3.515625 -6.15625 3.03125 -6.03125 2.59375 -5.78125 C 2.15625 -5.539062 1.8125 -5.207031 1.5625 -4.78125 C 1.320312 -4.363281 1.203125 -3.894531 1.203125 -3.375 C 1.203125 -2.84375 1.320312 -2.363281 1.5625 -1.9375 C 1.8125 -1.519531 2.15625 -1.1875 2.59375 -0.9375 C 3.03125 -0.695312 3.515625 -0.578125 4.046875 -0.578125 C 4.859375 -0.578125 5.523438 -0.847656 6.046875 -1.390625 L 6.5 -0.9375 C 6.195312 -0.613281 5.832031 -0.363281 5.40625 -0.1875 C 4.988281 -0.0195312 4.523438 0.0625 4.015625 0.0625 Z M 4.015625 0.0625 "/></g></g></g><g fill="#fad02c" fill-opacity="1"><g transform="translate(125.481379, 57.920577)"><g><path d="M 5.328125 -1.796875 L 1.5625 -1.796875 L 0.765625 0 L 0.015625 0 L 3.09375 -6.734375 L 3.796875 -6.734375 L 6.875 0 L 6.125 0 Z M 5.0625 -2.375 L 3.453125 -6 L 1.828125 -2.375 Z M 5.0625 -2.375 "/></g></g></g></svg>