<svg xmlns="http://www.w3.org/2000/svg" xmlns:xlink="http://www.w3.org/1999/xlink" width="250" zoomAndPan="magnify" viewBox="0 0 187.5 74.999997" height="100" preserveAspectRatio="xMidYMid meet" version="1.0"><defs><g/><clipPath id="975e49e8cf"><path d="M 0 0.101562 L 187 0.101562 L 187 74.898438 L 0 74.898438 Z M 0 0.101562 " clip-rule="nonzero"/></clipPath></defs><g clip-path="url(#975e49e8cf)"><path fill="#ffffff" d="M 0 0.101562 L 187.5 0.101562 L 187.5 75.101562 L 0 75.101562 Z M 0 0.101562 " fill-opacity="1" fill-rule="nonzero"/><path fill="#ffffff" d="M 0 0.101562 L 187.5 0.101562 L 187.5 75.101562 L 0 75.101562 Z M 0 0.101562 " fill-opacity="1" fill-rule="nonzero"/></g><g fill="#fad02c" fill-opacity="1"><g transform="translate(2.544641, 38.848003)"><g><path d="M 0.234375 -21.125 L 10.5 -21.125 L 10.5 -18.109375 L 7.03125 -18.109375 L 7.03125 0 L 3.71875 0 L 3.71875 -18.109375 L 0.234375 -18.109375 Z M 0.234375 -21.125 "/></g></g></g><g fill="#fad02c" fill-opacity="1"><g transform="translate(13.291634, 38.848003)"><g><path d="M 4.53125 0 L 1.203125 0 L 1.203125 -21.125 L 4.53125 -21.125 L 4.53125 -12.078125 L 8.296875 -12.078125 L 8.296875 -21.125 L 11.6875 -21.125 L 11.6875 0 L 8.296875 0 L 8.296875 -9.0625 L 4.53125 -9.0625 Z M 4.53125 0 "/></g></g></g><g fill="#fad02c" fill-opacity="1"><g transform="translate(26.181984, 38.848003)"><g><path d="M 4.53125 -12.21875 L 9.09375 -12.21875 L 9.09375 -9.203125 L 4.53125 -9.203125 L 4.53125 -3.015625 L 10.265625 -3.015625 L 10.265625 0 L 1.203125 0 L 1.203125 -21.125 L 10.265625 -21.125 L 10.265625 -18.109375 L 4.53125 -18.109375 Z M 4.53125 -12.21875 "/></g></g></g><g fill="#fad02c" fill-opacity="1"><g transform="translate(37.291238, 38.848003)"><g/></g></g><g fill="#fad02c" fill-opacity="1"><g transform="translate(41.970406, 38.848003)"><g><path d="M 1.203125 -21.125 L 4.53125 -21.125 L 4.53125 -3.015625 L 9.984375 -3.015625 L 9.984375 0 L 1.203125 0 Z M 1.203125 -21.125 "/></g></g></g><g fill="#fad02c" fill-opacity="1"><g transform="translate(52.204201, 38.848003)"><g><path d="M 4.25 -4.859375 C 4.25 -4.097656 4.40625 -3.5625 4.71875 -3.25 C 5.03125 -2.9375 5.453125 -2.78125 5.984375 -2.78125 C 6.503906 -2.78125 6.921875 -2.9375 7.234375 -3.25 C 7.546875 -3.5625 7.703125 -4.097656 7.703125 -4.859375 L 7.703125 -16.265625 C 7.703125 -17.035156 7.546875 -17.578125 7.234375 -17.890625 C 6.921875 -18.203125 6.503906 -18.359375 5.984375 -18.359375 C 5.453125 -18.359375 5.03125 -18.203125 4.71875 -17.890625 C 4.40625 -17.578125 4.25 -17.035156 4.25 -16.265625 Z M 0.9375 -16.0625 C 0.9375 -17.769531 1.367188 -19.082031 2.234375 -20 C 3.097656 -20.914062 4.347656 -21.375 5.984375 -21.375 C 7.609375 -21.375 8.851562 -20.914062 9.71875 -20 C 10.582031 -19.082031 11.015625 -17.769531 11.015625 -16.0625 L 11.015625 -5.078125 C 11.015625 -3.359375 10.582031 -2.039062 9.71875 -1.125 C 8.851562 -0.21875 7.609375 0.234375 5.984375 0.234375 C 4.347656 0.234375 3.097656 -0.21875 2.234375 -1.125 C 1.367188 -2.039062 0.9375 -3.359375 0.9375 -5.078125 Z M 0.9375 -16.0625 "/></g></g></g><g fill="#fad02c" fill-opacity="1"><g transform="translate(64.158724, 38.848003)"><g><path d="M 10.84375 -7.875 L 10.84375 -5.078125 C 10.84375 -3.359375 10.421875 -2.039062 9.578125 -1.125 C 8.742188 -0.21875 7.515625 0.234375 5.890625 0.234375 C 4.253906 0.234375 3.019531 -0.21875 2.1875 -1.125 C 1.351562 -2.039062 0.9375 -3.359375 0.9375 -5.078125 L 0.9375 -16.0625 C 0.9375 -17.769531 1.351562 -19.082031 2.1875 -20 C 3.019531 -20.914062 4.253906 -21.375 5.890625 -21.375 C 7.515625 -21.375 8.742188 -20.914062 9.578125 -20 C 10.421875 -19.082031 10.84375 -17.769531 10.84375 -16.0625 L 10.84375 -14 L 7.703125 -14 L 7.703125 -16.265625 C 7.703125 -17.035156 7.546875 -17.578125 7.234375 -17.890625 C 6.921875 -18.203125 6.503906 -18.359375 5.984375 -18.359375 C 5.453125 -18.359375 5.03125 -18.203125 4.71875 -17.890625 C 4.40625 -17.578125 4.25 -17.035156 4.25 -16.265625 L 4.25 -4.859375 C 4.25 -4.097656 4.40625 -3.566406 4.71875 -3.265625 C 5.03125 -2.960938 5.453125 -2.8125 5.984375 -2.8125 C 6.503906 -2.8125 6.921875 -2.960938 7.234375 -3.265625 C 7.546875 -3.566406 7.703125 -4.097656 7.703125 -4.859375 L 7.703125 -7.875 Z M 10.84375 -7.875 "/></g></g></g><g fill="#fad02c" fill-opacity="1"><g transform="translate(75.811364, 38.848003)"><g><path d="M 11.953125 0 L 8.609375 0 L 8.03125 -3.828125 L 3.953125 -3.828125 L 3.375 0 L 0.328125 0 L 3.71875 -21.125 L 8.578125 -21.125 Z M 4.375 -6.703125 L 7.578125 -6.703125 L 5.984375 -17.390625 Z M 4.375 -6.703125 "/></g></g></g><g fill="#fad02c" fill-opacity="1"><g transform="translate(88.09795, 38.848003)"><g><path d="M 1.203125 -21.125 L 4.53125 -21.125 L 4.53125 -3.015625 L 9.984375 -3.015625 L 9.984375 0 L 1.203125 0 Z M 1.203125 -21.125 "/></g></g></g><g fill="#fad02c" fill-opacity="1"><g transform="translate(98.331744, 38.848003)"><g/></g></g><g fill="#fad02c" fill-opacity="1"><g transform="translate(103.010912, 38.848003)"><g><path d="M 10.84375 -7.875 L 10.84375 -5.078125 C 10.84375 -3.359375 10.421875 -2.039062 9.578125 -1.125 C 8.742188 -0.21875 7.515625 0.234375 5.890625 0.234375 C 4.253906 0.234375 3.019531 -0.21875 2.1875 -1.125 C 1.351562 -2.039062 0.9375 -3.359375 0.9375 -5.078125 L 0.9375 -16.0625 C 0.9375 -17.769531 1.351562 -19.082031 2.1875 -20 C 3.019531 -20.914062 4.253906 -21.375 5.890625 -21.375 C 7.515625 -21.375 8.742188 -20.914062 9.578125 -20 C 10.421875 -19.082031 10.84375 -17.769531 10.84375 -16.0625 L 10.84375 -14 L 7.703125 -14 L 7.703125 -16.265625 C 7.703125 -17.035156 7.546875 -17.578125 7.234375 -17.890625 C 6.921875 -18.203125 6.503906 -18.359375 5.984375 -18.359375 C 5.453125 -18.359375 5.03125 -18.203125 4.71875 -17.890625 C 4.40625 -17.578125 4.25 -17.035156 4.25 -16.265625 L 4.25 -4.859375 C 4.25 -4.097656 4.40625 -3.566406 4.71875 -3.265625 C 5.03125 -2.960938 5.453125 -2.8125 5.984375 -2.8125 C 6.503906 -2.8125 6.921875 -2.960938 7.234375 -3.265625 C 7.546875 -3.566406 7.703125 -4.097656 7.703125 -4.859375 L 7.703125 -7.875 Z M 10.84375 -7.875 "/></g></g></g><g fill="#fad02c" fill-opacity="1"><g transform="translate(114.663553, 38.848003)"><g><path d="M 4.25 -4.859375 C 4.25 -4.097656 4.40625 -3.5625 4.71875 -3.25 C 5.03125 -2.9375 5.453125 -2.78125 5.984375 -2.78125 C 6.503906 -2.78125 6.921875 -2.9375 7.234375 -3.25 C 7.546875 -3.5625 7.703125 -4.097656 7.703125 -4.859375 L 7.703125 -16.265625 C 7.703125 -17.035156 7.546875 -17.578125 7.234375 -17.890625 C 6.921875 -18.203125 6.503906 -18.359375 5.984375 -18.359375 C 5.453125 -18.359375 5.03125 -18.203125 4.71875 -17.890625 C 4.40625 -17.578125 4.25 -17.035156 4.25 -16.265625 Z M 0.9375 -16.0625 C 0.9375 -17.769531 1.367188 -19.082031 2.234375 -20 C 3.097656 -20.914062 4.347656 -21.375 5.984375 -21.375 C 7.609375 -21.375 8.851562 -20.914062 9.71875 -20 C 10.582031 -19.082031 11.015625 -17.769531 11.015625 -16.0625 L 11.015625 -5.078125 C 11.015625 -3.359375 10.582031 -2.039062 9.71875 -1.125 C 8.851562 -0.21875 7.609375 0.234375 5.984375 0.234375 C 4.347656 0.234375 3.097656 -0.21875 2.234375 -1.125 C 1.367188 -2.039062 0.9375 -3.359375 0.9375 -5.078125 Z M 0.9375 -16.0625 "/></g></g></g><g fill="#fad02c" fill-opacity="1"><g transform="translate(126.618076, 38.848003)"><g><path d="M 4.171875 -15.3125 L 4.171875 0 L 1.171875 0 L 1.171875 -21.125 L 5.34375 -21.125 L 8.75 -8.484375 L 8.75 -21.125 L 11.71875 -21.125 L 11.71875 0 L 8.296875 0 Z M 4.171875 -15.3125 "/></g></g></g><g fill="#fad02c" fill-opacity="1"><g transform="translate(139.508426, 38.848003)"><g><path d="M 0.234375 -21.125 L 10.5 -21.125 L 10.5 -18.109375 L 7.03125 -18.109375 L 7.03125 0 L 3.71875 0 L 3.71875 -18.109375 L 0.234375 -18.109375 Z M 0.234375 -21.125 "/></g></g></g><g fill="#fad02c" fill-opacity="1"><g transform="translate(150.255419, 38.848003)"><g><path d="M 11.953125 0 L 8.609375 0 L 8.03125 -3.828125 L 3.953125 -3.828125 L 3.375 0 L 0.328125 0 L 3.71875 -21.125 L 8.578125 -21.125 Z M 4.375 -6.703125 L 7.578125 -6.703125 L 5.984375 -17.390625 Z M 4.375 -6.703125 "/></g></g></g><g fill="#fad02c" fill-opacity="1"><g transform="translate(162.542004, 38.848003)"><g><path d="M 10.84375 -7.875 L 10.84375 -5.078125 C 10.84375 -3.359375 10.421875 -2.039062 9.578125 -1.125 C 8.742188 -0.21875 7.515625 0.234375 5.890625 0.234375 C 4.253906 0.234375 3.019531 -0.21875 2.1875 -1.125 C 1.351562 -2.039062 0.9375 -3.359375 0.9375 -5.078125 L 0.9375 -16.0625 C 0.9375 -17.769531 1.351562 -19.082031 2.1875 -20 C 3.019531 -20.914062 4.253906 -21.375 5.890625 -21.375 C 7.515625 -21.375 8.742188 -20.914062 9.578125 -20 C 10.421875 -19.082031 10.84375 -17.769531 10.84375 -16.0625 L 10.84375 -14 L 7.703125 -14 L 7.703125 -16.265625 C 7.703125 -17.035156 7.546875 -17.578125 7.234375 -17.890625 C 6.921875 -18.203125 6.503906 -18.359375 5.984375 -18.359375 C 5.453125 -18.359375 5.03125 -18.203125 4.71875 -17.890625 C 4.40625 -17.578125 4.25 -17.035156 4.25 -16.265625 L 4.25 -4.859375 C 4.25 -4.097656 4.40625 -3.566406 4.71875 -3.265625 C 5.03125 -2.960938 5.453125 -2.8125 5.984375 -2.8125 C 6.503906 -2.8125 6.921875 -2.960938 7.234375 -3.265625 C 7.546875 -3.566406 7.703125 -4.097656 7.703125 -4.859375 L 7.703125 -7.875 Z M 10.84375 -7.875 "/></g></g></g><g fill="#fad02c" fill-opacity="1"><g transform="translate(174.194645, 38.848003)"><g><path d="M 0.234375 -21.125 L 10.5 -21.125 L 10.5 -18.109375 L 7.03125 -18.109375 L 7.03125 0 L 3.71875 0 L 3.71875 -18.109375 L 0.234375 -18.109375 Z M 0.234375 -21.125 "/></g></g></g><g fill="#fad02c" fill-opacity="1"><g transform="translate(53.563502, 57.300868)"><g><path d="M 6.609375 -1.398438 C 6.578125 -1.4375 6.546875 -1.457031 6.507812 -1.457031 C 6.476562 -1.457031 6.445312 -1.4375 6.414062 -1.40625 C 5.925781 -0.90625 5.171875 -0.457031 4.171875 -0.457031 C 2.519531 -0.457031 1.191406 -1.957031 1.191406 -3.570312 C 1.191406 -5.171875 2.519531 -6.679688 4.171875 -6.679688 C 5.171875 -6.679688 5.9375 -6.230469 6.382812 -5.753906 C 6.425781 -5.722656 6.457031 -5.699219 6.496094 -5.699219 C 6.527344 -5.699219 6.566406 -5.722656 6.597656 -5.753906 L 6.84375 -6.027344 C 6.914062 -6.097656 6.914062 -6.148438 6.84375 -6.222656 C 6.191406 -6.875 5.160156 -7.273438 4.171875 -7.273438 C 2.164062 -7.273438 0.519531 -5.597656 0.519531 -3.570312 C 0.519531 -1.539062 2.164062 0.132812 4.171875 0.132812 C 5.160156 0.132812 6.191406 -0.265625 6.84375 -0.917969 C 6.925781 -1 6.925781 -1.050781 6.851562 -1.132812 Z M 6.609375 -1.398438 "/></g></g></g><g fill="#fad02c" fill-opacity="1"><g transform="translate(60.903525, 57.300868)"><g><path d="M 4.171875 -7.273438 C 2.164062 -7.273438 0.519531 -5.597656 0.519531 -3.570312 C 0.519531 -1.539062 2.164062 0.132812 4.171875 0.132812 C 6.179688 0.132812 7.824219 -1.539062 7.824219 -3.570312 C 7.824219 -5.597656 6.179688 -7.273438 4.171875 -7.273438 Z M 1.191406 -3.570312 C 1.191406 -5.179688 2.519531 -6.679688 4.171875 -6.679688 C 5.832031 -6.679688 7.148438 -5.179688 7.148438 -3.570312 C 7.148438 -1.96875 5.832031 -0.457031 4.171875 -0.457031 C 2.519531 -0.457031 1.191406 -1.96875 1.191406 -3.570312 Z M 1.191406 -3.570312 "/></g></g></g><g fill="#fad02c" fill-opacity="1"><g transform="translate(69.242602, 57.300868)"><g><path d="M 5.792969 -6.273438 C 5.832031 -6.363281 5.84375 -6.414062 5.753906 -6.476562 C 4.976562 -6.945312 4.285156 -7.25 3.234375 -7.25 C 1.253906 -7.25 0.683594 -5.90625 0.683594 -5.148438 C 0.683594 -3.824219 2 -3.5 3.109375 -3.34375 C 4.507812 -3.140625 5.292969 -2.84375 5.292969 -1.957031 C 5.292969 -0.796875 4.222656 -0.480469 3.253906 -0.480469 C 2.46875 -0.480469 1.589844 -0.734375 0.9375 -1.183594 C 0.898438 -1.214844 0.867188 -1.222656 0.835938 -1.222656 C 0.796875 -1.222656 0.773438 -1.191406 0.734375 -1.140625 L 0.570312 -0.878906 C 0.519531 -0.773438 0.519531 -0.734375 0.613281 -0.671875 C 1.398438 -0.132812 2.285156 0.113281 3.355469 0.113281 C 5.121094 0.113281 5.945312 -0.898438 5.945312 -1.980469 C 5.945312 -3.304688 4.84375 -3.710938 3.519531 -3.894531 C 2.367188 -4.050781 1.335938 -4.273438 1.335938 -5.171875 C 1.335938 -5.710938 1.703125 -6.660156 3.335938 -6.660156 C 4.078125 -6.660156 4.78125 -6.394531 5.4375 -5.957031 C 5.476562 -5.9375 5.496094 -5.925781 5.527344 -5.925781 C 5.578125 -5.925781 5.609375 -5.957031 5.640625 -6.015625 Z M 5.792969 -6.273438 "/></g></g></g><g fill="#fad02c" fill-opacity="1"><g transform="translate(75.746673, 57.300868)"><g><path d="M 6.078125 -6.996094 C 6.078125 -7.097656 6.058594 -7.140625 5.9375 -7.140625 L 0.246094 -7.140625 C 0.132812 -7.140625 0.101562 -7.109375 0.101562 -6.996094 L 0.101562 -6.667969 C 0.101562 -6.566406 0.121094 -6.527344 0.246094 -6.527344 L 2.753906 -6.527344 L 2.753906 -0.144531 C 2.753906 -0.0390625 2.785156 0 2.894531 0 L 3.285156 0 C 3.394531 0 3.417969 -0.0390625 3.417969 -0.144531 L 3.417969 -6.527344 L 5.9375 -6.527344 C 6.046875 -6.527344 6.078125 -6.566406 6.078125 -6.667969 Z M 6.078125 -6.996094 "/></g></g></g><g fill="#fad02c" fill-opacity="1"><g transform="translate(81.924521, 57.300868)"><g><path d="M 0.753906 0 C 0.847656 0 0.886719 -0.03125 0.9375 -0.144531 L 1.773438 -1.988281 L 5.445312 -1.988281 L 6.28125 -0.144531 C 6.34375 -0.03125 6.375 0 6.464844 0 L 6.933594 0 C 7.027344 0 7.066406 -0.0625 7.027344 -0.144531 L 3.734375 -7.199219 C 3.703125 -7.273438 3.671875 -7.324219 3.628906 -7.324219 L 3.601562 -7.324219 C 3.550781 -7.324219 3.519531 -7.273438 3.488281 -7.199219 L 0.195312 -0.144531 C 0.164062 -0.0625 0.195312 0 0.273438 0 Z M 3.621094 -6.148438 L 5.222656 -2.570312 L 2 -2.570312 L 3.609375 -6.148438 Z M 3.621094 -6.148438 "/></g></g></g><g fill="#fad02c" fill-opacity="1"><g transform="translate(89.111621, 57.300868)"><g/></g></g><g fill="#fad02c" fill-opacity="1"><g transform="translate(91.690823, 57.300868)"><g><path d="M 6.089844 -5.160156 C 6.089844 -6.660156 4.761719 -7.140625 3.601562 -7.140625 L 1.152344 -7.140625 C 1.050781 -7.140625 1.007812 -7.109375 1.007812 -6.996094 L 1.007812 -0.144531 C 1.007812 -0.0195312 1.050781 0 1.152344 0 L 3.855469 0 C 5.203125 0 6.355469 -0.539062 6.355469 -1.96875 C 6.355469 -3.132812 5.253906 -3.578125 4.875 -3.671875 L 4.875 -3.683594 C 5.3125 -3.824219 6.089844 -4.242188 6.089844 -5.160156 Z M 1.671875 -3.375 L 3.90625 -3.375 C 4.894531 -3.375 5.671875 -2.773438 5.671875 -2.03125 C 5.671875 -1.121094 5.121094 -0.582031 3.792969 -0.582031 L 1.671875 -0.582031 Z M 1.671875 -6.558594 L 3.550781 -6.558594 C 4.660156 -6.558594 5.414062 -6.109375 5.414062 -5.097656 C 5.414062 -4.394531 4.730469 -3.9375 3.824219 -3.9375 L 1.671875 -3.9375 Z M 1.671875 -6.558594 "/></g></g></g><g fill="#fad02c" fill-opacity="1"><g transform="translate(98.500732, 57.300868)"><g><path d="M 5.332031 0 C 5.445312 0 5.476562 -0.0390625 5.476562 -0.144531 L 5.476562 -0.449219 C 5.476562 -0.550781 5.445312 -0.582031 5.332031 -0.582031 L 1.714844 -0.582031 L 1.714844 -6.996094 C 1.714844 -7.109375 1.683594 -7.140625 1.570312 -7.140625 L 1.191406 -7.140625 C 1.082031 -7.140625 1.050781 -7.109375 1.050781 -6.996094 L 1.050781 -0.144531 C 1.050781 -0.03125 1.082031 0 1.191406 0 Z M 5.332031 0 "/></g></g></g><g fill="#fad02c" fill-opacity="1"><g transform="translate(104.311581, 57.300868)"><g><path d="M 0.753906 0 C 0.847656 0 0.886719 -0.03125 0.9375 -0.144531 L 1.773438 -1.988281 L 5.445312 -1.988281 L 6.28125 -0.144531 C 6.34375 -0.03125 6.375 0 6.464844 0 L 6.933594 0 C 7.027344 0 7.066406 -0.0625 7.027344 -0.144531 L 3.734375 -7.199219 C 3.703125 -7.273438 3.671875 -7.324219 3.628906 -7.324219 L 3.601562 -7.324219 C 3.550781 -7.324219 3.519531 -7.273438 3.488281 -7.199219 L 0.195312 -0.144531 C 0.164062 -0.0625 0.195312 0 0.273438 0 Z M 3.621094 -6.148438 L 5.222656 -2.570312 L 2 -2.570312 L 3.609375 -6.148438 Z M 3.621094 -6.148438 "/></g></g></g><g fill="#fad02c" fill-opacity="1"><g transform="translate(111.498682, 57.300868)"><g><path d="M 1.082031 -0.144531 C 1.082031 -0.03125 1.121094 0 1.222656 0 L 1.613281 0 C 1.714844 0 1.742188 -0.03125 1.742188 -0.144531 L 1.742188 -5.9375 L 6.566406 0.0507812 C 6.617188 0.113281 6.660156 0.132812 6.710938 0.132812 L 6.75 0.132812 C 6.8125 0.132812 6.832031 0.121094 6.832031 0.0507812 L 6.832031 -6.996094 C 6.832031 -7.109375 6.800781 -7.140625 6.691406 -7.140625 L 6.3125 -7.140625 C 6.199219 -7.140625 6.171875 -7.109375 6.171875 -6.996094 L 6.171875 -1.234375 L 1.347656 -7.210938 C 1.304688 -7.25 1.273438 -7.273438 1.222656 -7.273438 L 1.171875 -7.273438 C 1.101562 -7.273438 1.082031 -7.261719 1.082031 -7.191406 Z M 1.082031 -0.144531 "/></g></g></g><g fill="#fad02c" fill-opacity="1"><g transform="translate(119.409593, 57.300868)"><g><path d="M 6.609375 -1.398438 C 6.578125 -1.4375 6.546875 -1.457031 6.507812 -1.457031 C 6.476562 -1.457031 6.445312 -1.4375 6.414062 -1.40625 C 5.925781 -0.90625 5.171875 -0.457031 4.171875 -0.457031 C 2.519531 -0.457031 1.191406 -1.957031 1.191406 -3.570312 C 1.191406 -5.171875 2.519531 -6.679688 4.171875 -6.679688 C 5.171875 -6.679688 5.9375 -6.230469 6.382812 -5.753906 C 6.425781 -5.722656 6.457031 -5.699219 6.496094 -5.699219 C 6.527344 -5.699219 6.566406 -5.722656 6.597656 -5.753906 L 6.84375 -6.027344 C 6.914062 -6.097656 6.914062 -6.148438 6.84375 -6.222656 C 6.191406 -6.875 5.160156 -7.273438 4.171875 -7.273438 C 2.164062 -7.273438 0.519531 -5.597656 0.519531 -3.570312 C 0.519531 -1.539062 2.164062 0.132812 4.171875 0.132812 C 5.160156 0.132812 6.191406 -0.265625 6.84375 -0.917969 C 6.925781 -1 6.925781 -1.050781 6.851562 -1.132812 Z M 6.609375 -1.398438 "/></g></g></g><g fill="#fad02c" fill-opacity="1"><g transform="translate(126.749616, 57.300868)"><g><path d="M 0.753906 0 C 0.847656 0 0.886719 -0.03125 0.9375 -0.144531 L 1.773438 -1.988281 L 5.445312 -1.988281 L 6.28125 -0.144531 C 6.34375 -0.03125 6.375 0 6.464844 0 L 6.933594 0 C 7.027344 0 7.066406 -0.0625 7.027344 -0.144531 L 3.734375 -7.199219 C 3.703125 -7.273438 3.671875 -7.324219 3.628906 -7.324219 L 3.601562 -7.324219 C 3.550781 -7.324219 3.519531 -7.273438 3.488281 -7.199219 L 0.195312 -0.144531 C 0.164062 -0.0625 0.195312 0 0.273438 0 Z M 3.621094 -6.148438 L 5.222656 -2.570312 L 2 -2.570312 L 3.609375 -6.148438 Z M 3.621094 -6.148438 "/></g></g></g></svg>